# xmcd CD database file
#
# Track frame offsets:
#	150
#	14117
#	36570
#	44637
#	66575
#	78830
#	86977
#	95625
#	113277
#	133450
#	144907
#
# Disc length: 2147 seconds
#
# Revision: 1
# Processed by: cddbd v1.5.2PL0 Copyright (c) Steve Scherf et al.
# Submitted via: CDex 1.70beta3
#
DISCID=a408610b
DTITLE=Le Trio Camara - Le Trio Camara
DYEAR=1968
DGENRE=Jazz
TTITLE0=Berimbau
TTITLE1=Nao Tem Solucao
TTITLE2=Bia
TTITLE3=Nascente
TTITLE4=Estrada Do Sol
TTITLE5=Upa Neguinho
TTITLE6=Feito De Ojacao
TTITLE7=Cheganca
TTITLE8=Noa Noa
TTITLE9=Muito A Vontade
TTITLE10=Samba Novo
EXTD=YEAR: 1968
EXTT0=
EXTT1=
EXTT2=
EXTT3=
EXTT4=
EXTT5=
EXTT6=
EXTT7=
EXTT8=
EXTT9=
EXTT10=
PLAYORDER=
